<svg xmlns="http://www.w3.org/2000/svg" xml:space="preserve" viewBox="0 0 100 100"><path fill="#1D4971" d="M0 0h100v100H0z"/><path fill="#FFF" d="M50.701 46.862h20.335v26.576c-3.296 1.075-6.398 1.829-9.309 2.262-2.91.432-5.885.648-8.923.648-7.737 0-13.645-2.272-17.723-6.819-4.079-4.546-6.118-11.073-6.118-19.582 0-8.273 2.366-14.725 7.1-19.353 4.733-4.629 11.295-6.942 19.687-6.942 5.259 0 10.33 1.052 15.216 3.155l-3.611 8.695c-3.74-1.87-7.632-2.805-11.675-2.805-4.698 0-8.462 1.577-11.289 4.732-2.829 3.156-4.243 7.398-4.243 12.728 0 5.563 1.14 9.812 3.419 12.745 2.278 2.934 5.592 4.399 9.939 4.399 2.267 0 4.569-.233 6.907-.701V55.908h-9.712v-9.046z"/></svg>